<svg xmlns="http://www.w3.org/2000/svg" viewBox="0 0 46.59 41.02"><defs><style>.cls-1{fill:#cc5073;}.cls-2{fill:#f9cace;}</style></defs><title>Asset 5</title><g id="Layer_2" data-name="Layer 2"><g id="Camada_1" data-name="Camada 1"><path class="cls-1" d="M2.62,4.87a.44.44,0,0,0-.4.11l-.09.36v.15l.1.31.24.1.25-.1,0,0L3,5.48a.4.4,0,0,0-.12-.43Z"/><path class="cls-1" d="M2.7,10.66h0l0-.3-.3-.14a.35.35,0,0,0-.34.24v.05l0,.05-.18.23.1.33h0a.53.53,0,0,0,.28.36l.17,0,.28-.14.06-.31V11a.32.32,0,0,0,0-.35"/><path class="cls-1" d="M6.33,10.71l0,0L6,10.51l-.3.18,0,.06-.17.13,0,.29a.74.74,0,0,0,.65.56h0a.36.36,0,0,0,.35-.35v-.21l-.08-.4Zm-.21.87Z"/><path class="cls-2" d="M40,21.15a11.25,11.25,0,0,1-2.65.26c-.58,0-1.16,0-1.74-.05-1.33-.05-2.68-.16-4-.26L30.16,21c-.76-.06-1.65-.11-2.55-.15l-1.41,0H24.59c-2.58,0-4.9.06-7.1.14-1.67.06-3.31.14-4.89.25a.34.34,0,0,0-.34-.29l-.27.13-.08.2c-2.84.2-5.48.47-8.06.83a.3.3,0,0,0-.27.33.37.37,0,0,0,.37.36H4c2.54-.34,5.16-.61,8-.81.09.73.16,1.52.24,2.49,0,.63.08,1.14.1,1.61v.06a7,7,0,0,1,0,1v.06l.08.25.27.13a.36.36,0,0,0,.35-.34,5.9,5.9,0,0,0,0-.94v-.11c0-.56-.06-1.12-.09-1.59-.08-1-.16-1.87-.26-2.69,1.77-.11,3.6-.2,5.6-.26,1.72-.06,3.56-.09,5.61-.11v0a23.92,23.92,0,0,1,.31,4.7v.22l.15.28c-1,0-2,.09-2.9.15-2,.13-4.16.35-6.52.65l-1,.13c-1.77.23-3.6.47-5.41.62-1.07.08-2,.12-3,.12H4.86a.33.33,0,0,0-.34.35.34.34,0,0,0,.34.36h.7A64.89,64.89,0,0,0,14,28.41c1.2-.16,2.44-.32,3.67-.45a111,111,0,0,1,11.83-.6h1.31c.84,0,1.7.06,2.53.12s1.84.12,2.76.12c.61,0,1.15,0,1.67-.08h.08a2.12,2.12,0,0,0,1.38-.47l.06-.38a.35.35,0,0,0-.57-.11l-.23.12a3.61,3.61,0,0,1-.55.12,12.27,12.27,0,0,1-1.62.09h-.15c-1.15,0-2.32-.07-3.46-.14h-.27c-.84,0-1.74-.07-2.83-.07H28.15c-1.18,0-2.29,0-3.36.08l.12-.27v-.12a26.13,26.13,0,0,0-.3-4.83h1.47c.56,0,1.31,0,2.05,0,.89,0,1.77.1,2.6.17l1,.07c1.38.11,2.81.22,4.22.27.43,0,.93,0,1.43,0a12.16,12.16,0,0,0,2.84-.28.33.33,0,0,0,.25-.37.36.36,0,0,0-.43-.31"/><path class="cls-2" d="M3.8,21.31c.75-.15,1.55-.31,2.31-.43l.63,0,1,0c.5,0,1,0,1.52,0a.36.36,0,0,0,.34-.37.34.34,0,0,0-.34-.33L9.19,20l-.27-.1-.28,0-.13,0c-.86,0-1.72.05-2.56.1s-1.7.1-2.55.11a.35.35,0,0,0,0,.7l0,.23a.34.34,0,0,0,.34.29Z"/><path class="cls-2" d="M5.06,24.44a12.84,12.84,0,0,1,1.35-.26,4.07,4.07,0,0,1,1.19-.05A.37.37,0,0,0,8,23.88l0-.3-.22-.14a5.58,5.58,0,0,0-1.35,0,11.62,11.62,0,0,0-1.52.29.32.32,0,0,0-.26.37.36.36,0,0,0,.35.32Z"/><path class="cls-2" d="M27,22.28a.35.35,0,0,0-.35.36A.34.34,0,0,0,27,23h3.23a.33.33,0,0,0,.34-.35.34.34,0,0,0-.34-.36Z"/><path class="cls-2" d="M15.89,23.35l.53,0,.51,0a2.66,2.66,0,0,0,.85-.11.35.35,0,0,0,.24-.4.33.33,0,0,0-.44-.28,2.06,2.06,0,0,1-.65.08h-.55l-.5,0c-.33,0-.67,0-1,0a.35.35,0,0,0,0,.7c.34,0,.68,0,1,.05"/><path class="cls-2" d="M5.51,31.53l.82-.12A11.56,11.56,0,0,1,8,31.22a.34.34,0,0,0,.35-.35A.35.35,0,0,0,8,30.52a10.78,10.78,0,0,0-1.71.19c-.27,0-.54.09-.81.12a.36.36,0,0,0-.33.35.35.35,0,0,0,.33.36Z"/><path class="cls-2" d="M5.57,33.31l.13,0a19.16,19.16,0,0,1,4.65-1.14c1.72-.24,3.48-.33,5.13-.4l1.71-.06c1,0,2.12-.06,3.18-.12.66,0,1.33-.11,2-.18l.9-.09c1.09-.11,2.09-.19,3.06-.27s2.06-.14,3-.19a17.11,17.11,0,0,1,1.76,0l1.16.06c.79.06,1.61.11,2.42.13h.61a8.91,8.91,0,0,0,.92,0,1.76,1.76,0,0,0,1-.29l.1-.35a.38.38,0,0,0-.52-.21l-.09.05-.2.06a4.87,4.87,0,0,1-.55.06c-.55,0-1.11,0-1.66,0s-1.29-.06-1.92-.1-1-.07-1.55-.09a16.22,16.22,0,0,0-1.85,0h-.31c-.93,0-1.93.12-3,.21l-3.05.28-.41,0c-.75.07-1.53.15-2.29.19-.93.05-1.88.07-2.79.1a67.08,67.08,0,0,0-7.31.53,19.33,19.33,0,0,0-4.27,1.1.38.38,0,0,0-.22.42.32.32,0,0,0,.31.27"/><path class="cls-2" d="M7.94,34.32l-.19,0c-.66.11-1.25.22-1.83.35a.33.33,0,0,0-.26.36.36.36,0,0,0,.35.33H6.1c.52-.11,1.09-.22,1.73-.33L8,35a9,9,0,0,1,1.36-.15.35.35,0,0,0,0-.7,9.36,9.36,0,0,0-1.4.15"/><path class="cls-2" d="M37.68,34.6a3.66,3.66,0,0,1-1.3.19h-.24l-1.29,0-.86,0-.62,0c-.59,0-1.2,0-1.8,0h-.1l-2.7-.05h-.42c-1.18,0-2.14,0-3.14,0s-2,.07-3.13.14L20.86,35c-1.67.1-3.39.2-5.08.38l-1,.12c-.5.06-1,.13-1.54.17s-1.28.08-1.9.11l-.63,0a21,21,0,0,0-5.1.73.35.35,0,0,0,.09.69l.1,0a23,23,0,0,1,5.53-.72l.31,0c.91,0,1.85-.09,2.77-.22s1.89-.23,3.09-.32,2.18-.16,3.15-.21l1.05-.07c.69,0,1.4-.1,2.1-.13s1.24,0,2,0c1,0,2,0,2.95,0l1.33,0c.9,0,1.79,0,2.69,0l.94,0c.31,0,.61,0,.92,0h.31c.53,0,1.07,0,1.6,0h.14a4,4,0,0,0,1.28-.21.38.38,0,0,0,.22-.42.33.33,0,0,0-.45-.25"/><path class="cls-1" d="M46.59,6.82a12.34,12.34,0,0,1-.22-4.41c0-.63.08-1.27.08-1.91A.35.35,0,0,0,46.1.15l-.44,0A2.84,2.84,0,0,0,44.6.17l-.18.11L43.3.36l-.87.07c-.38,0-.78,0-1.26,0L40,.45h-.37c-.77,0-1.53,0-2.29-.06l-1.87,0c-.63,0-1.28,0-2,0h-1l-.1-.17a.37.37,0,0,0-.62,0l0,.15C28,.4,24.17.66,20.5.91l-2,.14-3.27.21A131.72,131.72,0,0,0,2,2.51l-.67.12-.15,0a.34.34,0,0,0-.36.34V3c0,1.63,0,3.32-.1,5C.72,8.6.65,9.26.58,9.9S.45,11,.41,11.57c0,.28,0,.5,0,.71l-.11.26v4.82A40.65,40.65,0,0,0,.32,27c.06.63.13,1.25.2,1.88.11.91.21,1.85.29,2.77s.11,1.94.15,2.89c0,.65.05,1.29.09,1.94a29.08,29.08,0,0,0,.48,4.14l.18.23L2,41H2c5.91-.64,11.41-1.1,16.79-1.39,2.83-.15,5.65-.26,8.4-.31.95,0,2,0,3.2,0h6l1.54,0,1.57.11.77.06c.69,0,1.46.1,2.23.08a6.4,6.4,0,0,0,1.89-.29l.19-.15.32-.27a1.11,1.11,0,0,0,.13-.89L45,37.75a28.35,28.35,0,0,1-.28-8.38c.11-1.32.27-2.66.41-3.95.2-1.72.4-3.5.51-5.26.07-1.12.09-2.13.07-3.09l-.21-.32.26-.21.08-.37-.27-.23c.16-.86.29-1.82.39-2.92A20.49,20.49,0,0,0,46,9.56a.35.35,0,0,0-.36-.34h0q-.81.07-1.68.12l-.32-.18-.3.2a72.37,72.37,0,0,1-8.47-.46c-1.11-.11-2.25-.21-3.38-.3-1.31-.1-2.46-.16-3.53-.17-.86,0-1.74,0-2.59.05-.29,0-.58,0-.88,0-1.65.06-3.33.08-4.95.1l-2.17,0-1.75,0c1.76-.11,3.51-.25,5.23-.38l2.07-.15C24.4,8,26,7.92,27.48,7.84a.62.62,0,0,0,.5,0c.83,0,1.58-.08,2.3-.09,1.67,0,3.35-.08,5-.11l2.44-.05c1.09,0,2.55,0,4-.1h.42l.24,0c1.4-.05,2.66-.1,3.86-.18l.29-.15ZM14,7.64l-.08-.13,0,0-.11-.16-.3-.49C13.2,6.43,13,6,12.73,5.64a14.08,14.08,0,0,0-1.79-2.87l0-.1,0,0-.07-.14-.21-.16,0-.06c1.55-.11,3.13-.21,4.67-.3l1.42-.09a.58.58,0,0,0,.17.45l.18.17c1.05,1.66,2,3.41,3,5.11l0,.06-3.8.27L14,8.07ZM10.51,2.47ZM25.75,12.93l.11-.07a6,6,0,0,0,.86-1,18.31,18.31,0,0,1,1.41-1.4l.26-.22.11-.09h0l0,0,0,0a3.59,3.59,0,0,1,.5-.33.58.58,0,0,0,.28-.37l0-.22c1.79.08,3.61.25,5.37.41l.48,0-.13.11a12.55,12.55,0,0,0-1.09,1,33.61,33.61,0,0,0-2.3,2.62,30.16,30.16,0,0,0-2.3,3.2H27.08c-1.74,0-3.18,0-4.51,0A18.91,18.91,0,0,1,23.82,15c.31-.35.63-.68.94-1s.41-.44.61-.67Zm19.47-.06a26.45,26.45,0,0,1-.4,3l.07.3.06,0a4.17,4.17,0,0,1-1.52.35h0a16.63,16.63,0,0,1-1.67.07H40.52l-1,0c-.47,0-.94,0-1.42,0,.49-.53,1-1,1.49-1.54.84-.86,1.7-1.75,2.51-2.66.36-.41.82-1,1.24-1.55a5.19,5.19,0,0,0,.48-.77c.5,0,1-.06,1.48-.1a21.45,21.45,0,0,1-.08,2.92M3.46,3l.06.23.27.43a6.47,6.47,0,0,0-1-.56L3.46,3M14.38,9.7l0-.28c1.7-.06,3.42-.08,5.09-.1h.66l-.24.18a6.31,6.31,0,0,0-.48.45l-.08,0-.18.09v0l-.22.35c-.62.71-1.19,1.48-1.72,2.2s-1,1.44-1.54,2.16l-.19.26-.63.89-.3.41-.24.31-.08.19-.94.05c-1.62.09-3.29.17-4.94.24,1.08-1.16,2.05-2.39,2.94-3.53l.68-.88.78-1,.26-.33.39-.49.11-.15.48-.63.14-.16ZM7.49,11.37a2,2,0,0,1,.34,1,11.51,11.51,0,0,1-1.76.11H5.71l-.4,0,0,0-.54,0-1.31-.07c-.76,0-1.56-.08-2.34-.09,0-.17,0-.35,0-.56,0-.58.11-1.18.17-1.67a43.41,43.41,0,0,0,.28-4.36c0-.74,0-1.49,0-2.24,1.59.28,3,1.5,4.23,3.63A20.73,20.73,0,0,1,7.47,11ZM4.22,13.31c-.36.36-.73.76-1.18,1.3S2,16,1.51,16.62L1.23,17l-.09.21,0,.05H1V13.25l.14-.12,0-.14c.76,0,1.52,0,2.27.09l1,.05ZM44.41,25.22l-.11.94a47.9,47.9,0,0,0-.42,9.07,19.82,19.82,0,0,0,.47,3l.09.16,0,.06s-.06.06-.26.06l-.31.2a6.39,6.39,0,0,1-1.49.14l-.84,0c-.65,0-1.32-.07-2-.13-.46,0-.92-.07-1.39-.09s-1.12,0-1.89,0h-6c-5.14,0-10.65.22-16.82.67-3.58.26-7.37.61-11.25,1a39.47,39.47,0,0,1-.53-5.82c0-1.19-.1-2.42-.22-3.62-.06-.7-.14-1.4-.22-2.1S1,27,1,26.18C.78,24.33.71,22.79.71,21.34A30.61,30.61,0,0,1,.9,17.9c.93,0,1.88.06,2.89.06,3.2,0,6.44-.18,9.58-.35,1.58-.09,3.21-.18,4.81-.24.95,0,1.94-.06,3-.08l0,.09a.36.36,0,0,0,.61,0l.08-.12h10.7l.47,0c.45,0,1,.06,1.49.06a8.66,8.66,0,0,0,1.43-.1h1c.61,0,1.26,0,1.92,0l.48,0c.68,0,1.39.05,2.08.06h.22A15.23,15.23,0,0,0,44,17.22,4.35,4.35,0,0,0,45,17v.08a63.15,63.15,0,0,1-.56,8.15M25.19,1.31c2.73-.17,4.86-.26,6.87-.28.17.28.34.59.52.94a3.59,3.59,0,0,0,.31.65l.57,1.13a5.68,5.68,0,0,0,.22.7A6.06,6.06,0,0,0,34.47,6l.3.24c.09.15.18.31.26.43l0,.17,0,0L31.45,7c-1,0-1.94.06-3,.11a27.47,27.47,0,0,0-1.42-3c-.32-.57-.62-1.07-.92-1.53a8.24,8.24,0,0,0-.51-.73,2.14,2.14,0,0,0-.39-.56M43.83,6.4c-.44-.67-.86-1.34-1.28-2-.67-1.06-1.35-2.15-2.06-3.2h1.36c.43,0,.87,0,1.29-.09l.48,0c.27,0,.54-.05.81-.06h.13l.22,0L45,.94l.16-.15.48,0h.09c0,.52,0,1.06-.08,1.57a14.39,14.39,0,0,0,.14,4.19l-1.93.09Zm-35,2.66H8.56l-.24.06c-.25,0-.5.05-.74.09L7.49,9c.89,0,1.78,0,2.67,0l-1.33.12M2,40.86Z"/></g></g></svg>