<svg xmlns="http://www.w3.org/2000/svg" viewBox="0 0 48.29 38.86"><defs><style>.cls-1{fill:#666;}</style></defs><title>Asset 3</title><g id="Layer_2" data-name="Layer 2"><g id="Camada_1" data-name="Camada 1"><path class="cls-1" d="M0,8.7v24a3.86,3.86,0,0,0,3.86,3.86H18.69a14.29,14.29,0,0,0,15.64,0H44.44a3.85,3.85,0,0,0,3.85-3.86V8.7Zm42.68,1A1.23,1.23,0,1,1,41.45,11a1.22,1.22,0,0,1,1.23-1.23M8.75,12.85v19.6H6.27V12.21c0-1.54,3.11-2.67,3.68-2.14s-1.2,1.65-1.2,2.78M26.42,35.3A12.52,12.52,0,1,1,38.94,22.79,12.51,12.51,0,0,1,26.42,35.3M45.75,32h-5.4V29h5.4Z"/><path class="cls-1" d="M44.44,4.78h-.23V1.62h-8V4.76C34.22,4.53,32.65,0,32.65,0H20s-1.75,4.78-3.68,4.78h0v-3h-8v3H3.86A3.86,3.86,0,0,0,.07,8H48.23a3.87,3.87,0,0,0-3.79-3.18m-12.93.59H21.94V1.75h9.57Z"/><path class="cls-1" d="M26.47,16.28a6.61,6.61,0,1,0,6.61,6.61,6.62,6.62,0,0,0-6.61-6.61"/><path class="cls-1" d="M26.42,13.86a8.93,8.93,0,1,0,8.93,8.93,8.92,8.92,0,0,0-8.93-8.93m0,16.24a7.21,7.21,0,1,1,7.21-7.21,7.21,7.21,0,0,1-7.21,7.21"/></g></g></svg>