<svg xmlns="http://www.w3.org/2000/svg" viewBox="0 0 49.93 55.74"><defs><style>.cls-1{fill:#666;}</style></defs><title>Asset 2</title><g id="Layer_2" data-name="Layer 2"><g id="Camada_1" data-name="Camada 1"><path class="cls-1" d="M12.28,26.13v20a9.9,9.9,0,0,0,1.45.1h1.44V26H13.73a9.9,9.9,0,0,0-1.45.11M38.35,26V46.26h1.44a9.81,9.81,0,0,0,1.45-.1v-20A9.79,9.79,0,0,0,39.79,26Zm11.58-2.89A23.17,23.17,0,1,0,5,31a10.11,10.11,0,0,0,4.4,14.26V27A10.15,10.15,0,0,0,6.9,28.66a20.28,20.28,0,1,1,39.72,0A10,10,0,0,0,44.14,27V45.29a10.13,10.13,0,0,0,5.79-9.15A10,10,0,0,0,48.54,31a22.94,22.94,0,0,0,1.39-7.9"/><path class="cls-1" d="M46.94,44.2a1.37,1.37,0,0,0-1-1.34c0-.44,0-.72,0-.78l-.67,0s0,.3,0,.78a1.36,1.36,0,0,0-.95,1.32,1.4,1.4,0,0,0,.77,1.25c-.31,2.65-1.13,6.21-3.27,8.17A5.64,5.64,0,0,1,37.13,55c-2.31-.27-5.8-2.92-9.35-7,3.65-4.5,7.11-10.42,7.78-14.6.32-2.06-.05-3.53-1.13-4.38C33,27.9,31.69,27.54,30.49,28c-1.67.55-2.67,2.41-3.15,3.59a6.49,6.49,0,0,0-3-3.78,5,5,0,0,0-4.58.52c-.91.51-1.87,1.72-1.28,4.66.81,4.11,4.38,10.19,8.45,15-2.36,2.85-4.74,5-6.42,5.65-2.78,1-6.11.53-9.07-.4l-1.66-.74.17-.4-1-.42-.81-.89L4.24,49.18,4,49.83l-.21-.12L3.62,50,1.42,49h0L1,48.47l-.71.09L0,49.22l.44.57.71-.1h0l2.47,1-.37.88,3.84,1.58,1.44,0,.79.33.11-.26A21.62,21.62,0,0,0,17,54.86a11,11,0,0,0,3.75-.61c1.76-.64,4.22-2.86,6.63-5.75,3.37,3.89,7,6.87,9.7,7.19.33,0,.64.05,1,.05a6.11,6.11,0,0,0,4.27-1.62c2.29-2.11,3.16-5.81,3.48-8.55a1.35,1.35,0,0,0,1.19-1.37M27.33,47.45l-.78-1c-3.83-4.8-6.75-10.17-7.45-13.69-.4-2-.08-3.36.95-3.93a5.58,5.58,0,0,1,2.63-.79,3.24,3.24,0,0,1,1.35.29c2.21,1,2.95,4.3,3,4.33l.29,1.36.36-1.34s.95-3.44,3.06-4.14a3.61,3.61,0,0,1,3.32,1c.86.68,1.16,1.94.87,3.75-.63,4-4,9.75-7.56,14.17"/></g></g></svg>