<svg xmlns="http://www.w3.org/2000/svg" viewBox="0 0 48.61 43.98"><defs><style>.cls-1{fill:#666;}</style></defs><title>Asset 6</title><g id="Layer_2" data-name="Layer 2"><g id="Camada_1" data-name="Camada 1"><path class="cls-1" d="M45.76,0H3.69C1.9,0,0,1.13,0,2.93V32.82C0,34.62,1.9,37,3.69,37H19.83s.67,5.56-5.28,5.56V44H34.06V42.6c-6,0-4.44-5.56-4.44-5.56H45.76c1.79,0,2.85-2.42,2.85-4.22V2.93A2.67,2.67,0,0,0,45.76,0m-21,35.17A2.29,2.29,0,1,1,27,32.88a2.28,2.28,0,0,1-2.3,2.29m20.58-7.06H3V3H45.31Z"/></g></g></svg>